# xmcd
#
# Track frame offsets:
#	180
#	23681
#	47170
#	70582
#	90926
#	118360
#	138858
#	161205
#	185563
#	216117
#	234637
#	268465
#	289227
#	311436
#
# Disc length: 4406 seconds
#
# Revision: 0
# Processed by: cddbd v1.5.1PL0 Copyright (c) Steve Scherf et al.
# Submitted via: EasyCDDAExtractor 8.1.4.1
#
DISCID=cf11340e
DTITLE=Various Artist - Lau Dai Tinh Ai
DYEAR=1900
DGENRE=
TTITLE0=Huong Lan - Duyen tinh
TTITLE1=Huong Lan - Thai Chau - Lau dai tinh ai
TTITLE2=Huong Lan - Thai Chau - Tuong tu
TTITLE3=Huong Lan - Thai Chau - Dung noi xa nhau
TTITLE4=Tu Ca - Giang cau
TTITLE5=Huong Lan - Thai Chau - Tinh doi
TTITLE6=Huong Lan - Thai Chau - Ve duoi mai nha
TTITLE7=Huong Lan - Thai Chau - Nu tam xuan
TTITLE8=Huong Lan - Thai Chau - Trang rung xuong cau
TTITLE9=Huong Lan - Mua rung
TTITLE10=Thai Chau - Chuyen tinh nguoi dan ao
TTITLE11=Huong Lan - Chuyen di ve sang
TTITLE12=Thai Chau - Loi dang cho mot cuoc tinh
TTITLE13=Huong Lan - Doi thong hai mo
EXTD=
EXTT0=
EXTT1=
EXTT2=
EXTT3=
EXTT4=
EXTT5=
EXTT6=
EXTT7=
EXTT8=
EXTT9=
EXTT10=
EXTT11=
EXTT12=
EXTT13=
PLAYORDER=
